<?xml version="1.0" encoding="UTF-8"?>
<svg width="32px" height="32px" viewBox="0 0 32 32" version="1.1" xmlns="http://www.w3.org/2000/svg" xmlns:xlink="http://www.w3.org/1999/xlink">
    <title>ahelm-icon</title>
    <g id="ahelm-icon" stroke="none" stroke-width="1" fill="none" fill-rule="evenodd">
        <path d="M11.983702,24 C12.7753201,24 13.4447031,23.8182884 13.991851,23.4548652 C14.5389988,23.091442 15.0977881,22.5638921 15.6682189,21.8722157 C15.8894063,21.6025791 16,21.2391559 16,20.7819461 C16,20.5357562 15.9563446,20.3423212 15.8690338,20.2016413 C15.7817229,20.0609613 15.6623981,19.9906213 15.5110594,19.9906213 C15.3364377,19.9906213 15.1792782,20.0726846 15.0395809,20.2368113 C14.5273574,20.8464244 14.1024447,21.2772567 13.7648428,21.5293083 C13.427241,21.7813599 13.0721769,21.9073857 12.6996508,21.9073857 C12.3154831,21.9073857 12.0302678,21.7637749 11.8440047,21.4765533 C11.6577416,21.1893318 11.56461,20.7291911 11.56461,20.0961313 C11.56461,19.3810082 11.6897555,18.3347011 11.9400466,16.9572098 C12.1903376,15.5797186 12.4668219,14.3223916 12.7694994,13.1852286 C12.8044237,13.0445487 12.8218859,12.9273154 12.8218859,12.8335287 C12.8218859,12.2942556 12.4086147,12.024619 11.5820722,12.024619 C11.2328289,12.024619 10.9534342,12.0832356 10.7438882,12.2004689 C10.5343423,12.3177022 10.3946449,12.5404455 10.3247963,12.8686987 C9.89406286,15.119578 9.45750873,16.901524 9.01513388,18.2145369 C8.57275902,19.5275498 8.08381839,20.4771395 7.54831199,21.063306 C7.01280559,21.6494725 6.38998836,21.9425557 5.6798603,21.9425557 C5.05122235,21.9425557 4.5419092,21.6699883 4.15192084,21.1248535 C3.76193248,20.5797186 3.5669383,19.8089097 3.5669383,18.8124267 C3.5669383,17.4407972 3.82305006,16.1629543 4.33527357,14.978898 C4.84749709,13.7948417 5.62165308,12.8423212 6.65774156,12.1213365 C7.69383003,11.4003517 8.95110594,11.0398593 10.4295693,11.0398593 C10.9068685,11.0398593 11.3608847,11.0720985 11.7916182,11.1365768 C12.2223516,11.2010551 12.7403958,11.3036342 13.3457509,11.4443142 C13.3923166,11.4560375 13.4621653,11.4618992 13.5552969,11.4618992 C13.8579744,11.4618992 14.1228172,11.3270809 14.3498254,11.0574443 C14.5768335,10.7878077 14.6903376,10.5005862 14.6903376,10.1957796 C14.6903376,9.82063306 14.5273574,9.58616647 14.201397,9.49237984 C13.7008149,9.32825322 13.144936,9.20515826 12.5337602,9.12309496 C11.9225844,9.04103165 11.3492433,9 10.8137369,9 C8.74155995,9 6.96623981,9.46014068 5.48777648,10.380422 C4.00931315,11.3007034 2.89173458,12.5199297 2.13504075,14.0381008 C1.37834692,15.556272 1,17.2063306 1,18.9882767 C1,20.0199297 1.1862631,20.9138335 1.55878929,21.6699883 C1.93131548,22.426143 2.44062864,23.003517 3.08672875,23.4021102 C3.73282887,23.8007034 4.45750873,24 5.26076834,24 C6.9371362,24 8.20605355,23.091442 9.06752037,21.2743259 C9.19557625,22.1418523 9.50989523,22.8130129 10.0104773,23.2878077 C10.5110594,23.7626026 11.1688009,24 11.983702,24 Z M17.0137525,24 C17.7092338,24 18.1807466,23.4751131 18.4282908,22.4253394 C18.8526523,20.6395173 19.1827112,19.1312217 19.4184676,17.9004525 C19.6424361,17.8883861 20.0609037,17.8582202 20.6738703,17.8099548 C21.5933202,17.7375566 22.4420432,17.6289593 23.2200393,17.4841629 C23.1846758,17.8944193 23.1669941,18.3046757 23.1669941,18.7149321 C23.1669941,20.4042232 23.5088409,21.7013575 24.1925344,22.6063348 C24.8762279,23.5113122 25.7897839,23.9638009 26.9332024,23.9638009 C28.2534381,23.9638009 29.497053,23.2337858 30.6640472,21.7737557 C30.8880157,21.4962293 31,21.1221719 31,20.6515837 C31,20.39819 30.9557957,20.199095 30.867387,20.0542986 C30.7789784,19.9095023 30.6581532,19.8371041 30.5049116,19.8371041 C30.3280943,19.8371041 30.1689587,19.9215686 30.0275049,20.0904977 C29.5206287,20.7179487 29.0667976,21.1613876 28.6660118,21.4208145 C28.2652259,21.6802413 27.8231827,21.8099548 27.3398821,21.8099548 C26.7858546,21.8099548 26.3555992,21.5444947 26.0491159,21.0135747 C25.7426326,20.4826546 25.589391,19.5837104 25.589391,18.3167421 C25.589391,17.7978884 25.6070727,17.2971342 25.6424361,16.8144796 C28.6247544,15.6561086 30.1159136,13.5806938 30.1159136,10.5882353 C30.1159136,9.81598793 29.9449902,9.19155354 29.6031434,8.71493213 C29.2612967,8.23831071 28.7956778,8 28.2062868,8 C27.4047151,8 26.6797642,8.36199095 26.0314342,9.08597285 C25.3831041,9.80995475 24.8408644,10.7511312 24.4047151,11.9095023 C23.9685658,13.0678733 23.6444008,14.3107089 23.43222,15.638009 C22.9017682,15.7224736 22.2652259,15.7828054 21.5225933,15.8190045 L21.5225933,15.8190045 L19.7897839,15.9095023 C20.0726916,14.1960784 20.2141454,12.8386124 20.2141454,11.8371041 C20.2141454,10.7028658 20.0049116,9.86726998 19.586444,9.33031674 C19.1679764,8.7933635 18.5756385,8.52488688 17.8094303,8.52488688 C16.9960707,8.52488688 16.194499,8.76319759 15.4047151,9.239819 C14.6149312,9.71644042 13.9607073,10.3227753 13.4420432,11.0588235 C13.1473477,11.4811463 13,11.8793363 13,12.2533937 C13,12.494721 13.0589391,12.693816 13.1768173,12.8506787 C13.2946955,13.0075415 13.4361493,13.0859729 13.6011788,13.0859729 C13.7897839,13.0859729 13.9607073,12.9834087 14.1139489,12.7782805 C15.151277,11.3665158 16.0825147,10.6606335 16.9076621,10.6606335 C17.1787819,10.6606335 17.3968566,10.7631976 17.5618861,10.9683258 C17.7269155,11.173454 17.8094303,11.5595777 17.8094303,12.1266968 C17.8094303,13.0196078 17.6561886,14.3167421 17.3497053,16.0180995 L17.3497053,16.0180995 L16.4125737,16.0542986 C15.8939096,16.0784314 15.5225933,16.1840121 15.2986248,16.3710407 C15.0746562,16.5580694 14.9626719,16.8506787 14.9626719,17.2488688 C14.9626719,17.5625943 15.0510806,17.7888386 15.2278978,17.9276018 C15.4047151,18.066365 15.6876228,18.1357466 16.0766208,18.1357466 L16.0766208,18.1357466 L16.9253438,18.0995475 C16.6895874,19.2458522 16.3713163,20.6455505 15.9705305,22.2986425 C15.9115914,22.5761689 15.8821218,22.7933635 15.8821218,22.9502262 C15.8821218,23.6500754 16.259332,24 17.0137525,24 Z M26,15 C26.1666667,14.0888889 26.3910256,13.25 26.6730769,12.4833333 C26.9551282,11.7166667 27.2532051,11.1111111 27.5673077,10.6666667 C27.8814103,10.2222222 28.1794872,10 28.4615385,10 C28.6153846,10 28.7435897,10.0722222 28.8461538,10.2166667 C28.9487179,10.3611111 29,10.5611111 29,10.8166667 C29,11.8833333 28.7564103,12.7555556 28.2692308,13.4333333 C27.7820513,14.1111111 27.025641,14.6333333 26,15 Z" id="AH" fill="#4A90E2" fill-rule="nonzero"></path>
    </g>
</svg>