<?xml version="1.0" encoding="UTF-8"?>
<svg width="330px" height="86px" viewBox="0 0 330 86" version="1.1" xmlns="http://www.w3.org/2000/svg" xmlns:xlink="http://www.w3.org/1999/xlink">
    <title>logo</title>
    <g id="logo" stroke="none" stroke-width="1" fill="none" fill-rule="evenodd">
        <g id="ahelm.github.io" transform="translate(17.792000, 9.880000)" fill-rule="nonzero">
            <path d="M17.712,45.36 C19.088,45.36 20.512,44.8 21.984,43.68 C23.456,42.56 24.848,41.184 26.16,39.552 C26.768,38.848 27.072,37.856 27.072,36.576 C27.072,35.904 26.952,35.376 26.712,34.992 C26.472,34.608 26.144,34.416 25.728,34.416 C25.248,34.416 24.816,34.64 24.432,35.088 C22.96,36.848 21.792,38.12 20.928,38.904 C20.064,39.688 19.328,40.08 18.72,40.08 C18.336,40.08 18.024,39.936 17.784,39.648 C17.544,39.36 17.424,38.976 17.424,38.496 C17.424,37.056 17.792,34.496 18.528,30.816 C19.008,28.288 19.248,26.688 19.248,26.016 C19.248,24.896 18.464,24.336 16.896,24.336 C16.16,24.336 15.456,24.4 14.784,24.528 C14.624,23.824 14.424,23.336 14.184,23.064 C13.944,22.792 13.472,22.656 12.768,22.656 C10.56,22.656 8.472,23.352 6.504,24.744 C4.536,26.136 2.96,27.976 1.776,30.264 C0.592,32.552 -1.42108547e-14,34.976 -1.42108547e-14,37.536 C-1.42108547e-14,39.872 0.592,41.76 1.776,43.2 C2.96,44.64 4.544,45.36 6.528,45.36 C9.056,45.36 11.152,44.016 12.816,41.328 C13.264,42.576 13.928,43.56 14.808,44.28 C15.688,45 16.656,45.36 17.712,45.36 Z M8.256,40.512 C7.552,40.512 7,40.272 6.6,39.792 C6.2,39.312 6,38.576 6,37.584 C6,35.792 6.336,34.096 7.008,32.496 C7.68,30.896 8.584,29.608 9.72,28.632 C10.856,27.656 12.096,27.152 13.44,27.12 L13.44,27.12 L11.664,35.952 C11.376,37.328 10.912,38.432 10.272,39.264 C9.632,40.096 8.96,40.512 8.256,40.512 Z M40.416,45.36 C42.4,45.36 44.168,44.816 45.72,43.728 C47.272,42.64 48.784,41.248 50.256,39.552 C50.864,38.848 51.168,37.856 51.168,36.576 C51.168,35.904 51.048,35.376 50.808,34.992 C50.568,34.608 50.24,34.416 49.824,34.416 C49.344,34.416 48.912,34.64 48.528,35.088 C47.056,36.848 45.88,38.12 45,38.904 C44.12,39.688 43.36,40.08 42.72,40.08 C41.792,40.08 41.328,39.44 41.328,38.16 C41.328,37.264 41.632,35.424 42.24,32.64 C42.944,29.376 43.296,27.12 43.296,25.872 C43.296,23.792 42.256,22.752 40.176,22.752 C39.12,22.752 37.96,23.12 36.696,23.856 C35.432,24.592 34.152,25.816 32.856,27.528 C31.56,29.24 30.384,31.456 29.328,34.176 C29.328,32.416 29.376,30.704 29.472,29.04 C33.728,24.4 36.8,20.344 38.688,16.872 C40.576,13.4 41.52,10.048 41.52,6.816 C41.52,4.8 41.064,3.16 40.152,1.896 C39.24,0.632 38.048,0 36.576,0 C33.824,0 31.464,1.816 29.496,5.448 C27.528,9.08 26.04,13.568 25.032,18.912 C24.024,24.256 23.52,29.392 23.52,34.32 L23.52,34.32 L23.472,38.16 C23.44,38.768 23.424,39.584 23.424,40.608 C23.424,42.4 23.576,43.64 23.88,44.328 C24.184,45.016 24.816,45.36 25.776,45.36 C28.176,45.36 29.68,44.08 30.288,41.52 C30.768,39.568 31.392,37.712 32.16,35.952 C32.928,34.192 33.696,32.776 34.464,31.704 C35.232,30.632 35.824,30.096 36.24,30.096 C36.592,30.096 36.768,30.352 36.768,30.864 C36.768,31.632 36.56,33.024 36.144,35.04 C35.696,37.344 35.472,38.944 35.472,39.84 C35.472,41.632 35.888,43 36.72,43.944 C37.552,44.888 38.784,45.36 40.416,45.36 Z M30,23.04 C30.416,19.744 30.952,16.696 31.608,13.896 C32.264,11.096 32.944,8.872 33.648,7.224 C34.352,5.576 34.992,4.752 35.568,4.752 C35.984,4.752 36.304,5.024 36.528,5.568 C36.752,6.112 36.864,6.896 36.864,7.92 C36.864,10.16 36.216,12.656 34.92,15.408 C33.624,18.16 31.984,20.704 30,23.04 Z M57.168,45.36 C59.632,45.36 61.944,44.752 64.104,43.536 C66.264,42.32 67.936,40.992 69.12,39.552 C69.728,38.848 70.032,37.856 70.032,36.576 C70.032,35.904 69.912,35.376 69.672,34.992 C69.432,34.608 69.104,34.416 68.688,34.416 C68.208,34.416 67.776,34.64 67.392,35.088 C66.048,36.72 64.456,38.04 62.616,39.048 C60.776,40.056 59.136,40.56 57.696,40.56 C55.456,40.56 53.936,39.824 53.136,38.352 C56.912,37.424 59.592,36.168 61.176,34.584 C62.76,33 63.552,31.104 63.552,28.896 C63.552,27.008 62.992,25.512 61.872,24.408 C60.752,23.304 59.264,22.752 57.408,22.752 C55.328,22.752 53.464,23.312 51.816,24.432 C50.168,25.552 48.88,27.064 47.952,28.968 C47.024,30.872 46.56,32.928 46.56,35.136 C46.56,38.304 47.488,40.8 49.344,42.624 C51.2,44.448 53.808,45.36 57.168,45.36 Z M52.368,34.608 L52.368,34.512 C52.368,32.56 52.776,30.896 53.592,29.52 C54.408,28.144 55.408,27.456 56.592,27.456 C57.168,27.456 57.624,27.64 57.96,28.008 C58.296,28.376 58.464,28.864 58.464,29.472 C58.464,30.656 57.92,31.696 56.832,32.592 C55.744,33.488 54.256,34.16 52.368,34.608 L52.368,34.608 Z M74.784,45.36 C76.832,45.36 78.664,44.816 80.28,43.728 C81.896,42.64 83.392,41.248 84.768,39.552 C85.376,38.848 85.68,37.856 85.68,36.576 C85.68,35.904 85.56,35.376 85.32,34.992 C85.08,34.608 84.752,34.416 84.336,34.416 C83.856,34.416 83.424,34.64 83.04,35.088 C81.504,36.912 80.24,38.2 79.248,38.952 C78.256,39.704 77.104,40.08 75.792,40.08 C74.96,40.08 74.288,39.8 73.776,39.24 C73.264,38.68 72.896,37.744 72.672,36.432 C76.288,31.504 79.152,26.528 81.264,21.504 C83.376,16.48 84.432,12.064 84.432,8.256 C84.432,5.6 83.992,3.56 83.112,2.136 C82.232,0.712 81.024,0 79.488,0 C76.768,0 74.424,1.792 72.456,5.376 C70.488,8.96 69,13.248 67.992,18.24 C66.984,23.232 66.48,27.68 66.48,31.584 C66.48,35.648 67.16,38.96 68.52,41.52 C69.88,44.08 71.968,45.36 74.784,45.36 Z M72.336,29.952 C72.4,26.336 72.784,22.56 73.488,18.624 C74.192,14.688 75.008,11.392 75.936,8.736 C76.864,6.08 77.696,4.752 78.432,4.752 C79.328,4.752 79.776,5.968 79.776,8.4 C79.776,11.504 79.104,14.936 77.76,18.696 C76.416,22.456 74.608,26.208 72.336,29.952 Z M108.768,45.36 C109.888,45.36 110.696,45.096 111.192,44.568 C111.688,44.04 111.936,43.168 111.936,41.952 C111.936,39.808 112.032,37.864 112.224,36.12 C112.416,34.376 112.672,32.528 112.992,30.576 C113.344,28.272 113.52,26.704 113.52,25.872 C113.52,24.848 113.256,24.072 112.728,23.544 C112.2,23.016 111.424,22.752 110.4,22.752 C109.344,22.752 108.192,23.112 106.944,23.832 C105.696,24.552 104.424,25.76 103.128,27.456 C101.832,29.152 100.656,31.344 99.6,34.032 C99.696,33.456 99.872,32.592 100.128,31.44 C100.736,28.752 101.04,26.896 101.04,25.872 C101.04,24.816 100.808,24.032 100.344,23.52 C99.88,23.008 99.088,22.752 97.968,22.752 C96.848,22.752 95.656,23.176 94.392,24.024 C93.128,24.872 91.896,26.16 90.696,27.888 C89.496,29.616 88.464,31.728 87.6,34.224 C87.728,32.816 87.888,31.64 88.08,30.696 C88.272,29.752 88.528,28.64 88.848,27.36 C89.328,25.568 89.568,24.416 89.568,23.904 C89.568,23.456 89.44,23.152 89.184,22.992 C88.928,22.832 88.48,22.752 87.84,22.752 C86.656,22.752 85.736,22.968 85.08,23.4 C84.424,23.832 83.952,24.512 83.664,25.44 C82.48,29.184 81.888,33.136 81.888,37.296 C81.888,40.112 82.136,42.16 82.632,43.44 C83.128,44.72 83.984,45.36 85.2,45.36 C86.192,45.36 86.92,45.096 87.384,44.568 C87.848,44.04 88.256,43.024 88.608,41.52 C89.024,39.792 89.576,38.032 90.264,36.24 C90.952,34.448 91.664,32.976 92.4,31.824 C93.136,30.672 93.744,30.096 94.224,30.096 C94.576,30.096 94.752,30.352 94.752,30.864 C94.752,31.0773333 94.7377778,31.3688889 94.7093333,31.7386667 L94.6761481,32.1345185 C94.6129383,32.8377284 94.5102222,33.7582222 94.368,34.896 C94.048,37.2 93.888,38.96 93.888,40.176 C93.888,41.616 94.152,42.84 94.68,43.848 C95.208,44.856 96,45.36 97.056,45.36 C98.08,45.36 98.824,45.104 99.288,44.592 C99.752,44.08 100.16,43.056 100.512,41.52 C100.992,39.568 101.616,37.712 102.384,35.952 C103.152,34.192 103.92,32.776 104.688,31.704 C105.456,30.632 106.048,30.096 106.464,30.096 C106.816,30.096 106.992,30.352 106.992,30.864 C106.992,31.568 106.8,33.2 106.416,35.76 C105.968,38.704 105.744,40.816 105.744,42.096 C105.744,43.184 105.984,44 106.464,44.544 C106.944,45.088 107.712,45.36 108.768,45.36 Z" id="ahelm" fill="#000000"></path>
            <path d="M120.24,45.36 C121.68,45.36 122.816,44.92 123.648,44.04 C124.48,43.16 124.896,41.984 124.896,40.512 C124.896,39.168 124.536,38.152 123.816,37.464 C123.096,36.776 122.032,36.432 120.624,36.432 C119.152,36.432 118.008,36.864 117.192,37.728 C116.376,38.592 115.968,39.744 115.968,41.184 C115.968,42.432 116.328,43.44 117.048,44.208 C117.768,44.976 118.832,45.36 120.24,45.36 Z" id="." fill="#4A90E2"></path>
            <path d="M131.904,66.96 C134.944,66.96 137.448,65.064 139.416,61.272 C141.384,57.48 142.976,52.272 144.192,45.648 L144.192,45.648 L147.264,43.584 C148.544,42.688 150.56,41.312 153.312,39.456 C153.792,39.136 154.144,38.768 154.368,38.352 C154.592,37.936 154.704,37.36 154.704,36.624 C154.704,36.016 154.584,35.512 154.344,35.112 C154.104,34.712 153.776,34.512 153.36,34.512 C153.04,34.512 152.672,34.64 152.256,34.896 C149.984,36.368 147.616,38.064 145.152,39.984 C145.312,38.96 145.464,37.992 145.608,37.08 C145.752,36.168 145.888,35.328 146.016,34.56 C146.688,30.528 147.088,28.016 147.216,27.024 C147.248,26.8 147.264,26.496 147.264,26.112 C147.264,25.408 147.096,24.936 146.76,24.696 C146.424,24.456 145.856,24.336 145.056,24.336 C144.256,24.336 143.552,24.4 142.944,24.528 C142.784,23.824 142.584,23.336 142.344,23.064 C142.104,22.792 141.632,22.656 140.928,22.656 C138.72,22.656 136.632,23.352 134.664,24.744 C132.696,26.136 131.12,27.976 129.936,30.264 C128.752,32.552 128.16,34.976 128.16,37.536 C128.16,39.872 128.752,41.76 129.936,43.2 C131.12,44.64 132.704,45.36 134.688,45.36 C135.552,45.36 136.424,45.128 137.304,44.664 C138.184,44.2 138.896,43.536 139.44,42.672 L139.44,42.672 L139.152,44.544 C134.224,48.352 130.864,51.56 129.072,54.168 C127.28,56.776 126.384,59.216 126.384,61.488 C126.384,63.12 126.896,64.44 127.92,65.448 C128.944,66.456 130.272,66.96 131.904,66.96 Z M136.416,40.512 C135.712,40.512 135.16,40.272 134.76,39.792 C134.36,39.312 134.16,38.576 134.16,37.584 C134.16,35.792 134.496,34.096 135.168,32.496 C135.84,30.896 136.736,29.608 137.856,28.632 C138.976,27.656 140.192,27.152 141.504,27.12 L141.504,27.12 L139.968,35.328 C139.68,36.992 139.2,38.272 138.528,39.168 C137.856,40.064 137.152,40.512 136.416,40.512 Z M132.432,62.304 C131.952,62.304 131.608,62.128 131.4,61.776 C131.192,61.424 131.088,60.976 131.088,60.432 C131.088,59.152 131.632,57.664 132.72,55.968 C133.808,54.272 135.584,52.368 138.048,50.256 C137.12,54.448 136.152,57.504 135.144,59.424 C134.136,61.344 133.232,62.304 132.432,62.304 Z M157.536,19.584 C158.912,19.584 160.016,19.208 160.848,18.456 C161.68,17.704 162.096,16.688 162.096,15.408 C162.096,14.352 161.728,13.536 160.992,12.96 C160.256,12.384 159.296,12.096 158.112,12.096 C156.8,12.096 155.704,12.472 154.824,13.224 C153.944,13.976 153.504,14.912 153.504,16.032 C153.504,17.152 153.84,18.024 154.512,18.648 C155.184,19.272 156.192,19.584 157.536,19.584 Z M157.152,45.36 C159.904,45.36 162.864,43.424 166.032,39.552 C166.64,38.848 166.944,37.856 166.944,36.576 C166.944,35.904 166.824,35.376 166.584,34.992 C166.344,34.608 166.016,34.416 165.6,34.416 C165.12,34.416 164.688,34.64 164.304,35.088 C162.864,36.816 161.712,38.08 160.848,38.88 C159.984,39.68 159.264,40.08 158.688,40.08 C158.08,40.08 157.648,39.824 157.392,39.312 C157.136,38.8 157.008,38.064 157.008,37.104 C157.008,35.856 157.392,33.472 158.16,29.952 C158.768,27.04 159.072,25.184 159.072,24.384 C159.072,23.296 158.256,22.752 156.624,22.752 C155.568,22.752 154.8,22.944 154.32,23.328 C153.84,23.712 153.456,24.416 153.168,25.44 C152.592,27.392 152.12,29.496 151.752,31.752 C151.384,34.008 151.2,35.856 151.2,37.296 C151.2,39.728 151.672,41.68 152.616,43.152 C153.56,44.624 155.072,45.36 157.152,45.36 Z M174.768,45.36 C176.88,45.36 178.752,44.816 180.384,43.728 C182.016,42.64 183.52,41.248 184.896,39.552 C185.504,38.848 185.808,37.856 185.808,36.576 C185.808,35.904 185.688,35.376 185.448,34.992 C185.208,34.608 184.88,34.416 184.464,34.416 C183.984,34.416 183.552,34.64 183.168,35.088 C181.728,36.752 180.48,38 179.424,38.832 C178.368,39.664 177.152,40.08 175.776,40.08 C174.08,40.08 172.84,39.408 172.056,38.064 C171.272,36.72 170.88,34.384 170.88,31.056 C170.88,30.16 170.912,28.912 170.976,27.312 L170.976,27.312 L176.832,27.312 C180.448,27.312 182.256,26.208 182.256,24 C182.256,23.392 182.144,22.976 181.92,22.752 C181.696,22.528 181.328,22.416 180.816,22.416 L180.816,22.416 L175.44,22.416 C179.6,18.736 181.68,14.416 181.68,9.456 C181.68,7.664 181.296,6.176 180.528,4.992 C179.76,3.808 178.704,3.216 177.36,3.216 C175.536,3.216 173.832,4.08 172.248,5.808 C170.664,7.536 169.312,9.856 168.192,12.768 C167.072,15.68 166.24,18.896 165.696,22.416 L165.696,22.416 L162.96,22.416 C161.52,22.416 160.8,23.312 160.8,25.104 C160.8,25.872 160.968,26.432 161.304,26.784 C161.64,27.136 162.288,27.312 163.248,27.312 L163.248,27.312 L165.12,27.312 C165.024,28.752 164.976,30.176 164.976,31.584 C164.976,40.768 168.24,45.36 174.768,45.36 Z M171.456,21.696 C171.808,19.104 172.248,16.744 172.776,14.616 C173.304,12.488 173.864,10.824 174.456,9.624 C175.048,8.424 175.584,7.824 176.064,7.824 C176.768,7.824 177.12,8.768 177.12,10.656 C177.12,12.32 176.648,14.168 175.704,16.2 C174.76,18.232 173.344,20.064 171.456,21.696 Z M199.152,45.36 C201.136,45.36 202.904,44.816 204.456,43.728 C206.008,42.64 207.52,41.248 208.992,39.552 C209.6,38.848 209.904,37.856 209.904,36.576 C209.904,35.904 209.784,35.376 209.544,34.992 C209.304,34.608 208.976,34.416 208.56,34.416 C208.08,34.416 207.648,34.64 207.264,35.088 C205.792,36.848 204.616,38.12 203.736,38.904 C202.856,39.688 202.096,40.08 201.456,40.08 C200.528,40.08 200.064,39.44 200.064,38.16 C200.064,37.264 200.368,35.424 200.976,32.64 C201.68,29.376 202.032,27.12 202.032,25.872 C202.032,23.792 200.992,22.752 198.912,22.752 C197.856,22.752 196.696,23.12 195.432,23.856 C194.168,24.592 192.888,25.816 191.592,27.528 C190.296,29.24 189.12,31.456 188.064,34.176 C188.064,32.416 188.112,30.704 188.208,29.04 C192.464,24.4 195.536,20.344 197.424,16.872 C199.312,13.4 200.256,10.048 200.256,6.816 C200.256,4.8 199.8,3.16 198.888,1.896 C197.976,0.632 196.784,1.42108547e-14 195.312,1.42108547e-14 C192.56,1.42108547e-14 190.2,1.816 188.232,5.448 C186.264,9.08 184.776,13.568 183.768,18.912 C182.76,24.256 182.256,29.392 182.256,34.32 L182.256,34.32 L182.208,38.16 C182.176,38.768 182.16,39.584 182.16,40.608 C182.16,42.4 182.312,43.64 182.616,44.328 C182.92,45.016 183.552,45.36 184.512,45.36 C186.912,45.36 188.416,44.08 189.024,41.52 C189.504,39.568 190.128,37.712 190.896,35.952 C191.664,34.192 192.432,32.776 193.2,31.704 C193.968,30.632 194.56,30.096 194.976,30.096 C195.328,30.096 195.504,30.352 195.504,30.864 C195.504,31.632 195.296,33.024 194.88,35.04 C194.432,37.344 194.208,38.944 194.208,39.84 C194.208,41.632 194.624,43 195.456,43.944 C196.288,44.888 197.52,45.36 199.152,45.36 Z M188.736,23.04 C189.152,19.744 189.688,16.696 190.344,13.896 C191,11.096 191.68,8.872 192.384,7.224 C193.088,5.576 193.728,4.752 194.304,4.752 C194.72,4.752 195.04,5.024 195.264,5.568 C195.488,6.112 195.6,6.896 195.6,7.92 C195.6,10.16 194.952,12.656 193.656,15.408 C192.36,18.16 190.72,20.704 188.736,23.04 Z M221.328,45.36 C223.344,45.36 225.144,44.816 226.728,43.728 C228.312,42.64 229.792,41.248 231.168,39.552 C231.776,38.848 232.08,37.856 232.08,36.576 C232.08,35.904 231.96,35.376 231.72,34.992 C231.48,34.608 231.152,34.416 230.736,34.416 C230.256,34.416 229.824,34.64 229.44,35.088 C227.968,36.848 226.792,38.12 225.912,38.904 C225.032,39.688 224.272,40.08 223.632,40.08 C223.216,40.08 222.88,39.912 222.624,39.576 C222.368,39.24 222.24,38.768 222.24,38.16 C222.24,37.2 222.688,34.672 223.584,30.576 C224.384,26.992 224.784,24.8 224.784,24 C224.784,23.52 224.64,23.192 224.352,23.016 C224.064,22.84 223.552,22.752 222.816,22.752 C221.76,22.752 220.968,22.96 220.44,23.376 C219.912,23.792 219.52,24.48 219.264,25.44 C218.496,28.288 217.704,30.688 216.888,32.64 C216.072,34.592 215.304,36.048 214.584,37.008 C213.864,37.968 213.264,38.448 212.784,38.448 C212.432,38.448 212.176,38.312 212.016,38.04 C211.856,37.768 211.776,37.296 211.776,36.624 C211.776,35.504 212.096,33.264 212.736,29.904 C212.928,28.944 213.184,27.872 213.504,26.688 C213.856,25.216 214.032,24.352 214.032,24.096 C214.032,23.648 213.896,23.312 213.624,23.088 C213.352,22.864 212.864,22.752 212.16,22.752 C210.912,22.752 210,22.96 209.424,23.376 C208.848,23.792 208.4,24.48 208.08,25.44 C207.344,27.68 206.816,29.8 206.496,31.8 C206.176,33.8 206.016,36 206.016,38.4 C206.016,40.384 206.472,42.04 207.384,43.368 C208.296,44.696 209.472,45.36 210.912,45.36 C212.16,45.36 213.328,44.776 214.416,43.608 C215.504,42.44 216.32,40.768 216.864,38.592 C216.864,40.736 217.224,42.4 217.944,43.584 C218.664,44.768 219.792,45.36 221.328,45.36 Z M237.696,45.36 C239.456,45.36 241.104,44.824 242.64,43.752 C244.176,42.68 245.416,41.184 246.36,39.264 C247.304,37.344 247.776,35.184 247.776,32.784 C247.776,31.056 247.464,29.456 246.84,27.984 C246.216,26.512 245.32,25.312 244.152,24.384 C242.984,23.456 241.616,22.928 240.048,22.8 C242.352,19.952 244,17.232 244.992,14.64 C245.984,12.048 246.48,9.44 246.48,6.816 C246.48,4.8 246.032,3.16 245.136,1.896 C244.24,0.632 243.056,1.42108547e-14 241.584,1.42108547e-14 C238.864,1.42108547e-14 236.52,1.704 234.552,5.112 C232.584,8.52 231.088,12.648 230.064,17.496 C229.04,22.344 228.528,26.832 228.528,30.96 C228.528,35.632 229.256,39.2 230.712,41.664 C232.168,44.128 234.496,45.36 237.696,45.36 Z M234.864,26.064 C235.184,22.192 235.664,18.624 236.304,15.36 C236.944,12.096 237.64,9.512 238.392,7.608 C239.144,5.704 239.84,4.752 240.48,4.752 C240.896,4.752 241.224,5.024 241.464,5.568 C241.704,6.112 241.824,6.896 241.824,7.92 C241.824,10.224 241.192,12.856 239.928,15.816 C238.664,18.776 236.976,22.192 234.864,26.064 Z M237.888,40.176 C236.928,40.176 236.128,39.736 235.488,38.856 C234.848,37.976 234.528,36.576 234.528,34.656 C234.528,32.448 234.912,30.768 235.68,29.616 C236.448,28.464 237.392,27.888 238.512,27.888 C239.408,27.888 240.176,28.336 240.816,29.232 C241.456,30.128 241.776,31.456 241.776,33.216 C241.776,35.488 241.4,37.216 240.648,38.4 C239.896,39.584 238.976,40.176 237.888,40.176 Z" id="github" fill="#939393"></path>
            <path d="M254.304,45.36 C255.744,45.36 256.88,44.92 257.712,44.04 C258.544,43.16 258.96,41.984 258.96,40.512 C258.96,39.168 258.6,38.152 257.88,37.464 C257.16,36.776 256.096,36.432 254.688,36.432 C253.216,36.432 252.072,36.864 251.256,37.728 C250.44,38.592 250.032,39.744 250.032,41.184 C250.032,42.432 250.392,43.44 251.112,44.208 C251.832,44.976 252.896,45.36 254.304,45.36 Z" id="." fill="#4A90E2"></path>
            <path d="M269.136,19.584 C270.512,19.584 271.616,19.208 272.448,18.456 C273.28,17.704 273.696,16.688 273.696,15.408 C273.696,14.352 273.328,13.536 272.592,12.96 C271.856,12.384 270.896,12.096 269.712,12.096 C268.4,12.096 267.304,12.472 266.424,13.224 C265.544,13.976 265.104,14.912 265.104,16.032 C265.104,17.152 265.44,18.024 266.112,18.648 C266.784,19.272 267.792,19.584 269.136,19.584 Z M268.752,45.36 C271.504,45.36 274.464,43.424 277.632,39.552 C278.24,38.848 278.544,37.856 278.544,36.576 C278.544,35.904 278.424,35.376 278.184,34.992 C277.944,34.608 277.616,34.416 277.2,34.416 C276.72,34.416 276.288,34.64 275.904,35.088 C274.464,36.816 273.312,38.08 272.448,38.88 C271.584,39.68 270.864,40.08 270.288,40.08 C269.68,40.08 269.248,39.824 268.992,39.312 C268.736,38.8 268.608,38.064 268.608,37.104 C268.608,35.856 268.992,33.472 269.76,29.952 C270.368,27.04 270.672,25.184 270.672,24.384 C270.672,23.296 269.856,22.752 268.224,22.752 C267.168,22.752 266.4,22.944 265.92,23.328 C265.44,23.712 265.056,24.416 264.768,25.44 C264.192,27.392 263.72,29.496 263.352,31.752 C262.984,34.008 262.8,35.856 262.8,37.296 C262.8,39.728 263.272,41.68 264.216,43.152 C265.16,44.624 266.672,45.36 268.752,45.36 Z M282.768,45.36 C284.688,45.36 286.44,44.824 288.024,43.752 C289.608,42.68 290.864,41.192 291.792,39.288 C292.72,37.384 293.184,35.216 293.184,32.784 C293.184,31.024 292.848,29.376 292.176,27.84 C291.504,26.304 290.496,25.064 289.152,24.12 C287.808,23.176 286.192,22.704 284.304,22.704 C282.352,22.704 280.592,23.24 279.024,24.312 C277.456,25.384 276.216,26.872 275.304,28.776 C274.392,30.68 273.936,32.848 273.936,35.28 C273.936,37.04 274.272,38.688 274.944,40.224 C275.616,41.76 276.616,43 277.944,43.944 C279.272,44.888 280.88,45.36 282.768,45.36 Z M283.296,40.176 C282.336,40.176 281.536,39.744 280.896,38.88 C280.256,38.016 279.936,36.672 279.936,34.848 C279.936,32.544 280.312,30.808 281.064,29.64 C281.816,28.472 282.768,27.888 283.92,27.888 C284.816,27.888 285.584,28.336 286.224,29.232 C286.864,30.128 287.184,31.456 287.184,33.216 C287.184,35.488 286.808,37.216 286.056,38.4 C285.304,39.584 284.384,40.176 283.296,40.176 Z" id="io" fill="#939393"></path>
        </g>
    </g>
</svg>